<svg xmlns="http://www.w3.org/2000/svg" xmlns:xlink="http://www.w3.org/1999/xlink" width="57" height="57" viewBox="0 0 57 57">
  <defs>
    <clipPath id="clip-path">
      <rect id="Rettangolo_737" data-name="Rettangolo 737" width="44.048" height="38.441" transform="translate(0 0)" fill="#fff"/>
    </clipPath>
  </defs>
  <g id="Raggruppa_236" data-name="Raggruppa 236" transform="translate(-596.997 -708)">
    <rect id="Rettangolo_661" data-name="Rettangolo 661" width="57" height="57" rx="10" transform="translate(596.997 708)" fill="#004a99"/>
    <g id="Raggruppa_235" data-name="Raggruppa 235" transform="translate(603.475 717.278)">
      <g id="Raggruppa_235-2" data-name="Raggruppa 235" transform="translate(0 0)" clip-path="url(#clip-path)">
        <path id="Tracciato_211" data-name="Tracciato 211" d="M1016.617,566.861a.577.577,0,0,1-.5-.288l-4.544-7.871a.577.577,0,0,1,.5-.865h2.823a.577.577,0,0,1,0,1.154h-1.824l3.545,6.14,3.545-6.14h-1.824a.577.577,0,0,1,0-1.154h2.823a.577.577,0,0,1,.5.865l-4.544,7.871a.577.577,0,0,1-.5.288" transform="translate(-977.691 -539.193)" fill="#fff"/>
        <path id="Tracciato_212" data-name="Tracciato 212" d="M273.051,19.792a.577.577,0,0,1-.577-.577A18.088,18.088,0,0,0,254.407,1.149a18.013,18.013,0,0,0-12.976,5.508.577.577,0,0,1-.829-.8,19.213,19.213,0,0,1,33.027,13.361.577.577,0,0,1-.577.577" transform="translate(-232.404 0.005)" fill="#fff"/>
        <path id="Tracciato_213" data-name="Tracciato 213" d="M9.665,331.344H6.843a.577.577,0,1,1,0-1.154H8.666l-3.545-6.14-3.545,6.14H3.4a.577.577,0,1,1,0,1.154H.577a.577.577,0,0,1-.5-.865l4.544-7.871a.577.577,0,0,1,1,0l4.544,7.871a.577.577,0,0,1-.5.865" transform="translate(0 -311.547)" fill="#fff"/>
        <path id="Tracciato_214" data-name="Tracciato 214" d="M103.688,577.633a19.243,19.243,0,0,1-19.222-19.22.577.577,0,0,1,1.154,0,18.088,18.088,0,0,0,18.068,18.066,18.012,18.012,0,0,0,12.976-5.508.577.577,0,0,1,.829.8,19.167,19.167,0,0,1-13.8,5.86" transform="translate(-81.643 -539.193)" fill="#fff"/>
        <path id="Tracciato_215" data-name="Tracciato 215" d="M340.344,251.532a1.074,1.074,0,0,1-1.038-.849l-.576-2.726,0-.008a.362.362,0,0,0-.119-.15l-.042-.022-1.748-1.007-.043-.028a.365.365,0,0,0-.191-.026l-.005,0-2.65.86a1.074,1.074,0,0,1-1.254-.474l-1.576-2.732a1.075,1.075,0,0,1,.216-1.323l2.07-1.864.006-.006a.363.363,0,0,0,.071-.179c0-.017,0-.031,0-.048v-2.017q0-.026,0-.051a.363.363,0,0,0-.073-.179l0,0-2.069-1.866a1.076,1.076,0,0,1-.215-1.323l1.574-2.728a1.075,1.075,0,0,1,1.254-.475l2.651.858.009,0a.365.365,0,0,0,.191-.029l.04-.026,1.747-1.008.045-.023a.361.361,0,0,0,.118-.151v-.005l.576-2.725a1.075,1.075,0,0,1,1.037-.849H343.5a1.075,1.075,0,0,1,1.038.849l.577,2.725,0,.009a.363.363,0,0,0,.12.151l.042.022,1.747,1.008.042.027a.364.364,0,0,0,.191.026l.006,0,2.65-.861a1.074,1.074,0,0,1,1.254.475l1.576,2.732a1.075,1.075,0,0,1-.216,1.323l-2.07,1.864-.006.005a.364.364,0,0,0-.071.179c0,.017,0,.031,0,.048v2.017c0,.017,0,.034,0,.051a.363.363,0,0,0,.073.179l0,0,2.069,1.865a1.076,1.076,0,0,1,.216,1.323l-1.574,2.728a1.075,1.075,0,0,1-1.253.475l-2.651-.858-.008,0a.365.365,0,0,0-.192.029l-.04.025-1.747,1.008-.046.024a.361.361,0,0,0-.117.152v.005l-.576,2.724a1.075,1.075,0,0,1-1.037.849Zm3.068-1.078h0m-3.552-2.732.562,2.657h3.006l.562-2.655a1.472,1.472,0,0,1,.735-.954l1.712-.988a1.477,1.477,0,0,1,1.193-.158l2.585.837,1.5-2.595-2.017-1.819a1.474,1.474,0,0,1-.458-1.113v-1.976a1.474,1.474,0,0,1,.459-1.113l2.018-1.817-1.5-2.6-2.583.839a1.474,1.474,0,0,1-1.193-.158l-1.712-.988a1.473,1.473,0,0,1-.734-.955l-.563-2.656h-3.006l-.562,2.656a1.471,1.471,0,0,1-.734.955l-1.712.987a1.474,1.474,0,0,1-1.193.159l-2.585-.837-1.5,2.595,2.017,1.819a1.474,1.474,0,0,1,.458,1.113v1.976a1.473,1.473,0,0,1-.459,1.113l-2.018,1.817,1.5,2.6,2.583-.838a1.474,1.474,0,0,1,1.193.159l1.712.986a1.471,1.471,0,0,1,.734.955m10.428-1.238h0M333.56,233.4h0m16.727,0h0m-.114-.043h0Z" transform="translate(-319.901 -220.723)" fill="#fff"/>
        <path id="Tracciato_216" data-name="Tracciato 216" d="M531.553,452.068a4.406,4.406,0,0,1,0-8.812.577.577,0,0,1,0,1.154,3.252,3.252,0,1,0,3.252,3.252.577.577,0,0,1,1.154,0,4.411,4.411,0,0,1-4.406,4.406" transform="translate(-509.529 -428.442)" fill="#fff"/>
      </g>
    </g>
  </g>
</svg>
