<svg xmlns="http://www.w3.org/2000/svg" xmlns:xlink="http://www.w3.org/1999/xlink" width="57" height="57" viewBox="0 0 57 57">
  <defs>
    <clipPath id="clip-path">
      <rect id="Rettangolo_736" data-name="Rettangolo 736" width="35.74" height="34.05" transform="translate(0 0)" fill="#fff"/>
    </clipPath>
  </defs>
  <g id="Raggruppa_208" data-name="Raggruppa 208" transform="translate(-297.975 -708)">
    <rect id="Rettangolo_660" data-name="Rettangolo 660" width="57" height="57" rx="10" transform="translate(297.975 708)" fill="#004a99"/>
    <g id="Raggruppa_234" data-name="Raggruppa 234" transform="translate(308.364 719.187)">
      <g id="Raggruppa_233" data-name="Raggruppa 233" transform="translate(0 -0.005)" clip-path="url(#clip-path)">
        <path id="Tracciato_197" data-name="Tracciato 197" d="M337.431,400.473a7.5,7.5,0,0,1,.214,1.785,7.444,7.444,0,1,1-2.5-5.56l.611-.822a8.423,8.423,0,1,0,2.43,3.575Z" transform="translate(-312.332 -382.28)" fill="#fff"/>
        <path id="Tracciato_198" data-name="Tracciato 198" d="M449.417,494.65H449.4a1.161,1.161,0,0,1-.932-.494l-3.849-5.5a.51.51,0,1,1,.836-.585l3.849,5.5a.133.133,0,0,0,.111.059.135.135,0,0,0,.112-.055l6.768-9.115a.51.51,0,1,1,.819.608l-6.768,9.115a1.161,1.161,0,0,1-.93.468" transform="translate(-431.531 -470.095)" fill="#fff"/>
        <path id="Tracciato_199" data-name="Tracciato 199" d="M161.511,1039.4a6.118,6.118,0,0,1-2.76-.74,6.9,6.9,0,0,1-1.472-1.032.51.51,0,0,1,.055-.777,7.137,7.137,0,0,1,1.254-.69.51.51,0,1,1,.407.936c-.176.077-.335.155-.473.227a6.49,6.49,0,0,0,.707.435h0a4.653,4.653,0,0,0,2.8.578,3.712,3.712,0,0,0,2.141-1.209c.128-.138.239-.272.332-.393-.131-.031-.278-.064-.437-.1a.51.51,0,1,1,.2-1,11.164,11.164,0,0,1,1.214.31.51.51,0,0,1,.289.724,6.085,6.085,0,0,1-.853,1.151,4.706,4.706,0,0,1-2.726,1.522,4.273,4.273,0,0,1-.686.054" transform="translate(-152.532 -1005.352)" fill="#fff"/>
        <path id="Tracciato_200" data-name="Tracciato 200" d="M33.368,859.455a4.315,4.315,0,0,1-1.136-.151,5.73,5.73,0,0,1-2.863-2.041,6.875,6.875,0,0,1-.919-1.549.51.51,0,0,1,.371-.685,7.1,7.1,0,0,1,1.427-.112.51.51,0,0,1-.007,1.02h-.007c-.192,0-.369,0-.524.012a6.445,6.445,0,0,0,.466.689l0,0a4.637,4.637,0,0,0,2.32,1.677,3.719,3.719,0,0,0,2.449-.225c.173-.073.329-.15.464-.221-.107-.083-.227-.173-.36-.268a.51.51,0,0,1,.594-.83,11.123,11.123,0,0,1,.982.782.51.51,0,0,1-.034.779,6.082,6.082,0,0,1-1.25.7,5.1,5.1,0,0,1-1.975.421" transform="translate(-27.584 -829.92)" fill="#fff"/>
        <path id="Tracciato_201" data-name="Tracciato 201" d="M5.079,615.368l-.166,0a4.7,4.7,0,0,1-2.945-1.038A5.751,5.751,0,0,1,.2,611.291a6.9,6.9,0,0,1-.2-1.784.51.51,0,0,1,.619-.473,7.133,7.133,0,0,1,1.348.483.51.51,0,0,1-.431.925c-.174-.081-.337-.149-.483-.2a6.461,6.461,0,0,0,.141.816v0a4.655,4.655,0,0,0,1.42,2.484,3.707,3.707,0,0,0,2.322.806c.188,0,.362,0,.514-.011-.063-.119-.135-.25-.216-.391a.51.51,0,1,1,.884-.51,11.182,11.182,0,0,1,.571,1.114.51.51,0,0,1-.352.7,5.942,5.942,0,0,1-1.262.124" transform="translate(0 -591.215)" fill="#fff"/>
        <path id="Tracciato_202" data-name="Tracciato 202" d="M59.755,377.875a.512.512,0,0,1-.1-.009,6.085,6.085,0,0,1-1.352-.474,4.7,4.7,0,0,1-2.261-2.154,5.728,5.728,0,0,1-.36-3.5,6.884,6.884,0,0,1,.555-1.712.51.51,0,0,1,.759-.175,7.123,7.123,0,0,1,1.028,1,.51.51,0,0,1-.775.664c-.125-.146-.246-.275-.356-.385a6.459,6.459,0,0,0-.209.805v0a4.635,4.635,0,0,0,.273,2.85,3.71,3.71,0,0,0,1.789,1.686c.17.081.33.148.473.2-.009-.134-.021-.284-.037-.445a.51.51,0,1,1,1.015-.1,11.05,11.05,0,0,1,.064,1.252.51.51,0,0,1-.51.5" transform="translate(-53.94 -358.94)" fill="#fff"/>
        <path id="Tracciato_203" data-name="Tracciato 203" d="M174.827,192.3a.51.51,0,0,1-.295-.094,6.091,6.091,0,0,1-1.035-.991,4.711,4.711,0,0,1-1.169-2.9,5.74,5.74,0,0,1,1.11-3.333,6.893,6.893,0,0,1,1.207-1.332.51.51,0,0,1,.764.152,7.124,7.124,0,0,1,.529,1.33.51.51,0,1,1-.979.288c-.054-.184-.112-.352-.166-.5a6.462,6.462,0,0,0-.52.647l0,0a4.647,4.647,0,0,0-.922,2.709,3.716,3.716,0,0,0,.932,2.275c.121.144.239.271.348.379.048-.126.1-.268.151-.422a.51.51,0,1,1,.967.325,11.094,11.094,0,0,1-.46,1.167.51.51,0,0,1-.46.289" transform="translate(-167.289 -178.175)" fill="#fff"/>
        <path id="Tracciato_204" data-name="Tracciato 204" d="M926.984,192.282a.51.51,0,0,1-.46-.289,11.062,11.062,0,0,1-.46-1.167.51.51,0,1,1,.967-.325c.052.154.1.3.151.422.108-.108.227-.235.349-.38a3.715,3.715,0,0,0,.931-2.272,4.647,4.647,0,0,0-.922-2.71l0,0a6.474,6.474,0,0,0-.52-.647c-.055.146-.112.313-.167.5a.51.51,0,1,1-.979-.288,7.118,7.118,0,0,1,.529-1.33.51.51,0,0,1,.764-.152,6.893,6.893,0,0,1,1.207,1.332,5.741,5.741,0,0,1,1.11,3.335,4.71,4.71,0,0,1-1.168,2.892,6.086,6.086,0,0,1-1.036.992.51.51,0,0,1-.294.094" transform="translate(-898.783 -178.16)" fill="#fff"/>
        <path id="Tracciato_205" data-name="Tracciato 205" d="M1006.583,377.86a.51.51,0,0,1-.51-.5,11.014,11.014,0,0,1,.064-1.252.51.51,0,0,1,1.015.1c-.017.161-.029.311-.037.445.143-.054.3-.12.475-.2a3.707,3.707,0,0,0,1.786-1.684,4.634,4.634,0,0,0,.274-2.852v0a6.457,6.457,0,0,0-.209-.805c-.11.11-.231.239-.356.385a.51.51,0,0,1-.775-.664,7.124,7.124,0,0,1,1.028-1,.51.51,0,0,1,.759.175,6.891,6.891,0,0,1,.555,1.712,5.727,5.727,0,0,1-.36,3.5,4.7,4.7,0,0,1-2.258,2.152,6.1,6.1,0,0,1-1.354.475.516.516,0,0,1-.1.009" transform="translate(-976.657 -358.926)" fill="#fff"/>
        <path id="Tracciato_206" data-name="Tracciato 206" d="M993.827,615.353a5.955,5.955,0,0,1-1.263-.124.51.51,0,0,1-.352-.7,11.215,11.215,0,0,1,.571-1.114.51.51,0,1,1,.884.51c-.081.14-.153.272-.216.391.153.01.326.015.516.011a3.7,3.7,0,0,0,2.319-.8,4.655,4.655,0,0,0,1.422-2.485v0a6.446,6.446,0,0,0,.141-.816c-.145.055-.309.122-.483.2a.51.51,0,0,1-.431-.925,7.115,7.115,0,0,1,1.347-.483.51.51,0,0,1,.619.473,6.893,6.893,0,0,1-.2,1.785,5.752,5.752,0,0,1-1.765,3.038,4.7,4.7,0,0,1-2.942,1.037l-.166,0" transform="translate(-963.164 -591.201)" fill="#fff"/>
        <path id="Tracciato_207" data-name="Tracciato 207" d="M910.958,859.444a5.1,5.1,0,0,1-1.973-.421,6.1,6.1,0,0,1-1.252-.7.51.51,0,0,1-.034-.779,11.022,11.022,0,0,1,.982-.782.51.51,0,1,1,.594.83c-.132.095-.253.185-.36.268.135.072.291.148.466.222a3.714,3.714,0,0,0,2.445.225,4.636,4.636,0,0,0,2.321-1.677l0,0a6.42,6.42,0,0,0,.466-.689c-.155-.01-.332-.015-.524-.012h-.007a.51.51,0,0,1-.007-1.021,7.092,7.092,0,0,1,1.427.112.51.51,0,0,1,.371.685,6.877,6.877,0,0,1-.919,1.549,5.731,5.731,0,0,1-2.865,2.041,4.31,4.31,0,0,1-1.135.151" transform="translate(-881.002 -829.91)" fill="#fff"/>
        <path id="Tracciato_208" data-name="Tracciato 208" d="M771.69,1039.393a4.293,4.293,0,0,1-.688-.054,4.7,4.7,0,0,1-2.723-1.52,6.094,6.094,0,0,1-.854-1.153.51.51,0,0,1,.289-.724,11.138,11.138,0,0,1,1.215-.31.51.51,0,0,1,.2,1c-.159.032-.306.065-.437.1.094.121.2.255.333.394a3.708,3.708,0,0,0,2.137,1.208,4.652,4.652,0,0,0,2.8-.577h0a6.482,6.482,0,0,0,.707-.435c-.138-.073-.3-.15-.473-.227a.51.51,0,1,1,.407-.936,7.141,7.141,0,0,1,1.254.691.511.511,0,0,1,.055.777,6.9,6.9,0,0,1-1.472,1.031,6.116,6.116,0,0,1-2.76.74" transform="translate(-744.93 -1005.344)" fill="#fff"/>
        <path id="Tracciato_209" data-name="Tracciato 209" d="M415.747,1.92a.88.88,0,0,0-1.023.059l-2.183,1.732L410.9.482a.89.89,0,0,0-1.587,0l-1.637,3.229L405.5,1.979a.89.89,0,0,0-1.423.885l.809,3.743h1.044l-.778-3.6,2.022,1.6a.89.89,0,0,0,1.346-.295l1.593-3.141L411.7,4.315a.889.889,0,0,0,1.346.295l2.022-1.6-.778,3.6h1.044l.809-3.743a.88.88,0,0,0-.4-.943" transform="translate(-392.241 0.005)" fill="#fff"/>
        <path id="Tracciato_210" data-name="Tracciato 210" d="M416.985,262.061H405.974a.51.51,0,1,1,0-1.02h11.011a.51.51,0,0,1,0,1.02" transform="translate(-393.609 -253.409)" fill="#fff"/>
      </g>
    </g>
  </g>
</svg>
